# xmcd
#
# Track frame offsets:
# 150
# 21214
# 36964
# 56277
# 73254
# 88282
# 103489
# 118141
# 129657
# 143420
# 162244
# 175010
# 189521
# 206185
# 220597
# 233924
# 249655
# 265766
# 284630
# 300318
# 313587
# 329467
#
# Disc length: 4589 seconds
#
#
# Revision: 2
# Processed by: cddbd v1.5.1PL0 Copyright (c) Steve Scherf et al.
# Submitted via: FreeRIP 2.942 
#
DISCID=4d11eb16
DTITLE=Various Artist - PROMO ONLY COUNTRY RADIO SEPTEMBER 2005
DYEAR=2005
DGENRE=COUNTRY RADIO
TTITLE0=Keith Urban - Better Life
TTITLE1=Gretchen Wilson - All Jacked Up
TTITLE2=Rascal Flatts - Skin (Sarabeth)
TTITLE3=Toby Keith - As Good As I Once Was
TTITLE4=Alan Jackson - USA Today
TTITLE5=Seven - Drunk Chicks
TTITLE6=Terri Clark - She Didn't Have Time
TTITLE7=Blake Shelton - Nobody But Me
TTITLE8=Joe Nichols - Tequila Makes Her Clothes Fall Off
TTITLE9=Dierks Bentley - Come A Little Closer
TTITLE10=The Warren Brothers - Change
TTITLE11=Martina McBride - (I Never Promised You A) Rose Garden
TTITLE12=Keith Anderson - XXL
TTITLE13=Steve Holy - It's My Time (Waste It If I Want To)
TTITLE14=Ray Scott - My Kind Of Music
TTITLE15=Darryl Worley - I Love Her, She Hates Me
TTITLE16=Ryan Shupe and The Rubberband - Dream Big
TTITLE17=Luke Stricklin - American By God's Amazing Grace
TTITLE18=Josh Turner - Your Man
TTITLE19=Buddy Jewell - So Gone
TTITLE20=Keni Thomas - Gloryland
TTITLE21=Derryl Perry - You Will
EXTD=
EXTT0=
EXTT1=
EXTT2=
EXTT3=
EXTT4=
EXTT5=
EXTT6=
EXTT7=
EXTT8=
EXTT9=
EXTT10=
EXTT11=
EXTT12=
EXTT13=
EXTT14=
EXTT15=
EXTT16=
EXTT17=
EXTT18=
EXTT19=
EXTT20=
EXTT21=
PLAYORDER=
